<svg xmlns="http://www.w3.org/2000/svg" viewBox="0 0 64 64">
  <defs>
    <linearGradient id="bg" x1="0%" y1="0%" x2="100%" y2="100%">
      <stop offset="0%" stop-color="#2563eb" />
      <stop offset="100%" stop-color="#1d4ed8" />
    </linearGradient>
  </defs>
  <rect x="4" y="4" width="56" height="56" rx="14" fill="url(#bg)" />
  <rect x="7" y="7" width="50" height="50" rx="11" fill="none" stroke="#ffffff" stroke-opacity="0.2" stroke-width="2" />
  <path
    d="M40.6 19.3c-2.3-1.3-5.2-2-8.8-2-6.8 0-11.3 3.3-11.3 8.7 0 4.5 2.9 6.7 9.8 8.3 4.6 1 6 1.9 6 3.8 0 2.1-1.9 3.5-5.2 3.5-3.1 0-6.5-1-9.1-2.8l-3.3 6.2c3.1 2.2 7.8 3.7 12.4 3.7 8.2 0 13-3.7 13-9.7 0-4.4-2.5-6.7-9.5-8.4-4.5-1.1-6.2-1.6-6.2-3.6 0-1.9 1.6-3 4.4-3 2.5 0 5 .7 7.2 1.9z"
    fill="#ffffff"
  />
</svg>
